<svg width="35" height="38" viewBox="0 0 35 38" fill="none" xmlns="http://www.w3.org/2000/svg">
<line x1="18.4916" y1="25.2044" x2="17.4916" y2="37.3971" stroke="#FFD7B2" stroke-width="5"/>
<ellipse cx="13.9089" cy="7.18211" rx="13.9089" ry="7.18211" transform="matrix(-0.984705 0.174232 -0.168288 -0.985738 33.8097 28.0975)" fill="#91B86A"/>
<ellipse cx="10.0675" cy="7.13823" rx="10.0675" ry="7.13823" transform="matrix(0.858143 0.513411 -0.493847 0.869549 17.0504 0)" fill="#91B86A"/>
<ellipse cx="10.0675" cy="7.25094" rx="10.0675" ry="7.25094" transform="matrix(0.858143 0.513411 -0.493847 0.869549 7.16174 2)" fill="#91B86A"/>
<mask id="mask0_1002_96" style="mask-type:alpha" maskUnits="userSpaceOnUse" x="2" y="12" width="31" height="10">
<path d="M2 17L33 17" stroke="#DFB289" stroke-width="10"/>
</mask>
<g mask="url(#mask0_1002_96)">
<path d="M5.75052 25.172C5.08299 21.262 10.5956 17.0211 18.0632 15.6998C25.5309 14.3785 32.1258 16.477 32.7933 20.387C33.4608 24.297 27.9482 28.5379 20.4806 29.8592C13.0129 31.1805 6.41804 29.082 5.75052 25.172Z" fill="#91B86A"/>
<path d="M30.804 16.6237C28.8571 20.0518 23.4108 20.5166 18.6394 17.662C13.868 14.8073 11.5783 9.7142 13.5252 6.28615C15.4721 2.8581 20.9184 2.39325 25.6898 5.24789C30.4612 8.10254 32.7509 13.1957 30.804 16.6237Z" fill="#91B86A"/>
<path d="M20.7483 18.6426C18.7707 22.1248 13.2995 22.6335 8.52809 19.7789C3.75669 16.9242 1.49191 11.7872 3.46956 8.30505C5.44721 4.82287 10.9184 4.31414 15.6898 7.16879C20.4612 10.0234 22.726 15.1604 20.7483 18.6426Z" fill="#91B86A"/>
</g>
</svg>
